<svg width="254" height="135" viewBox="0 0 254 135" fill="none" xmlns="http://www.w3.org/2000/svg">
<path d="M154.952 96C152.769 96 150.883 95.6486 149.292 94.9458C147.702 94.243 146.481 93.2443 145.63 91.9497C144.78 90.6181 144.354 89.0461 144.354 87.2337C144.354 85.5322 144.743 84.0341 145.52 82.7395C146.296 81.4079 147.48 80.2983 149.07 79.4105C150.698 78.5228 152.714 77.894 155.118 77.5241L164.384 76.0261V82.1292L156.616 83.5163C155.433 83.7382 154.526 84.1266 153.897 84.6814C153.269 85.1993 152.954 85.9576 152.954 86.9562C152.954 87.881 153.306 88.6022 154.008 89.1201C154.711 89.6379 155.58 89.8969 156.616 89.8969C157.985 89.8969 159.187 89.6009 160.223 89.0091C161.258 88.4173 162.053 87.622 162.608 86.6234C163.2 85.5877 163.496 84.4595 163.496 83.2389V75.3603C163.496 74.2136 163.034 73.2519 162.109 72.4751C161.221 71.6984 160.001 71.31 158.447 71.31C156.968 71.31 155.654 71.7169 154.508 72.5306C153.398 73.3444 152.584 74.4171 152.067 75.7487L145.409 72.5861C146 70.8846 146.944 69.4236 148.238 68.2029C149.533 66.9823 151.086 66.0391 152.899 65.3733C154.711 64.7075 156.69 64.3746 158.835 64.3746C161.388 64.3746 163.644 64.837 165.604 65.7617C167.565 66.6864 169.081 67.981 170.154 69.6455C171.264 71.273 171.819 73.1779 171.819 75.3603V95.3342H164.051V90.4517L165.937 90.1188C165.05 91.4504 164.069 92.56 162.997 93.4478C161.924 94.2985 160.722 94.9273 159.39 95.3342C158.059 95.7781 156.579 96 154.952 96Z" fill="white"/>
<path d="M133.936 95.3341V53.3333H142.259V95.3341H133.936Z" fill="white"/>
<path d="M114.371 96C111.93 96 109.84 95.4821 108.102 94.4464C106.4 93.3738 105.106 91.8942 104.218 90.0078C103.33 88.1214 102.886 85.9205 102.886 83.4053V65.0404H111.209V82.7395C111.209 83.8862 111.431 84.9033 111.875 85.7911C112.355 86.6418 113.021 87.3076 113.872 87.7885C114.723 88.2693 115.684 88.5097 116.757 88.5097C117.867 88.5097 118.828 88.2693 119.642 87.7885C120.493 87.3076 121.14 86.6418 121.584 85.7911C122.065 84.9033 122.305 83.8862 122.305 82.7395V65.0404H130.628V95.3342H122.86V89.342L123.304 90.6736C122.601 92.486 121.455 93.8361 119.864 94.7239C118.311 95.5746 116.48 96 114.371 96Z" fill="white"/>
<path d="M85.9166 95.9999C83.8452 95.9999 81.9218 95.63 80.1463 94.8902C78.4079 94.1135 77.0023 92.9853 75.9296 91.5057L76.7064 89.7858V95.3341H68.9388V53.3333H77.2612V70.8105L75.9851 69.146C76.9838 67.6295 78.3339 66.4644 80.0354 65.6506C81.7739 64.7999 83.7528 64.3745 85.9721 64.3745C88.8572 64.3745 91.4649 65.0773 93.7952 66.4828C96.1255 67.8884 97.9749 69.7933 99.3435 72.1976C100.712 74.5649 101.396 77.2281 101.396 80.1872C101.396 83.1093 100.712 85.7725 99.3435 88.1768C98.0119 90.581 96.181 92.486 93.8507 93.8915C91.5204 95.2971 88.8757 95.9999 85.9166 95.9999ZM84.9179 88.5097C86.4714 88.5097 87.84 88.1583 89.0236 87.4555C90.2073 86.7527 91.132 85.7725 91.7978 84.5149C92.4636 83.2573 92.7965 81.8147 92.7965 80.1872C92.7965 78.5597 92.4636 77.1356 91.7978 75.915C91.132 74.6574 90.2073 73.6772 89.0236 72.9744C87.84 72.2346 86.4714 71.8647 84.9179 71.8647C83.4383 71.8647 82.1067 72.2161 80.9231 72.9189C79.7765 73.6217 78.8702 74.6019 78.2044 75.8595C77.5756 77.1171 77.2612 78.5597 77.2612 80.1872C77.2612 81.8147 77.5756 83.2573 78.2044 84.5149C78.8702 85.7725 79.7765 86.7527 80.9231 87.4555C82.1067 88.1583 83.4383 88.5097 84.9179 88.5097Z" fill="white"/>
<path d="M52.3867 96C49.1687 96 46.3761 95.2972 44.0088 93.8916C41.6415 92.4491 39.8106 90.5257 38.5159 88.1214C37.2213 85.7171 36.574 83.0539 36.574 80.1318C36.574 77.0987 37.2398 74.3986 38.5714 72.0313C39.94 69.664 41.771 67.7961 44.0643 66.4275C46.3576 65.0589 48.9468 64.3746 51.8319 64.3746C54.2362 64.3746 56.363 64.763 58.2125 65.5398C60.0619 66.2795 61.6154 67.3337 62.8731 68.7023C64.1677 70.0709 65.1479 71.6614 65.8137 73.4738C66.4795 75.2493 66.8123 77.1912 66.8123 79.2996C66.8123 79.8914 66.7754 80.4832 66.7014 81.075C66.6644 81.6299 66.5719 82.1107 66.424 82.5176H43.7314V76.4144H61.7079L57.7686 79.2996C58.1385 77.7091 58.12 76.3035 57.7131 75.0829C57.3062 73.8252 56.585 72.845 55.5493 72.1422C54.5506 71.4025 53.3115 71.0326 51.8319 71.0326C50.3893 71.0326 49.1502 71.384 48.1145 72.0868C47.0788 72.7895 46.3021 73.8252 45.7842 75.1938C45.2664 76.5624 45.063 78.2269 45.1739 80.1873C45.026 81.8888 45.2294 83.3868 45.7842 84.6814C46.3391 85.976 47.1898 86.9932 48.3365 87.733C49.4831 88.4358 50.8702 88.7872 52.4977 88.7872C53.9772 88.7872 55.2349 88.4913 56.2706 87.8995C57.3432 87.3076 58.1755 86.4939 58.7673 85.4582L65.4253 88.6207C64.8335 90.1003 63.8902 91.3949 62.5956 92.5046C61.338 93.6142 59.84 94.4835 58.1015 95.1123C56.363 95.7041 54.4581 96 52.3867 96Z" fill="white"/>
<path d="M0 95.3341V53.9991H6.6025L28.7958 83.2387L25.2448 84.071V53.9991H33.8447V95.3341H27.1867L5.38187 65.8725L8.59989 65.0403V95.3341H0Z" fill="white"/>
<path d="M250.686 36.9459C247.51 33.7699 242.36 33.7699 239.184 36.9459L239.183 36.9472C234.153 41.9784 238.824 45.2137 225.886 58.1516C217.993 66.0449 214.271 68.3949 210.431 68.3699C207.154 68.3949 202.87 66.045 194.976 58.1515C182.037 45.2123 186.71 41.9777 181.678 36.9458C181.38 36.6479 181.06 36.3873 180.73 36.1452C176.743 32.9686 172.817 35.3334 160.712 23.2281C147.773 10.2891 152.086 7.41388 147.054 2.38202C143.878 -0.794006 138.729 -0.794006 135.553 2.38202L135.551 2.38338C131.241 6.6958 134.833 10.2905 121.895 23.2283C108.958 36.1653 106.081 31.8558 101.051 36.8839L101.049 36.8861C97.8727 40.0621 97.8727 45.2115 101.049 48.3875C104.225 51.5635 109.374 51.5635 112.55 48.3875C117.582 43.3556 112.909 40.121 125.848 27.1819C133.742 19.2883 138.027 16.9384 141.303 16.9634C145.143 16.9384 148.865 19.2884 156.758 27.1817C169.696 40.1196 165.026 43.3549 170.055 48.3861L170.057 48.3874C170.313 48.6441 170.587 48.8723 170.867 49.0875C175.497 53.1077 178.688 49.7701 191.023 62.1051C203.96 75.0428 200.368 78.6375 204.679 82.9499L204.68 82.9512C207.856 86.1273 213.006 86.1273 216.182 82.9513C221.214 77.9194 216.901 75.0442 229.84 62.1052C242.779 49.1661 246.373 52.7603 250.686 48.4472C253.862 45.2712 253.862 40.1219 250.686 36.9459Z" fill="#9E7AEB"/>
<path d="M1.51923 128.69V117.884C1.51923 117.721 1.64981 117.574 1.82936 117.574H5.56723C7.50962 117.574 9.01129 118.88 9.01129 120.594C9.01129 121.851 7.98297 122.83 7.21581 123.189C8.08091 123.467 9.33775 124.348 9.33775 125.85C9.33775 127.678 7.77078 129 5.77942 129H1.82936C1.64981 129 1.51923 128.853 1.51923 128.69ZM3.62484 122.373H5.37136C6.20381 122.373 6.7751 121.72 6.7751 120.904C6.7751 120.088 6.20381 119.517 5.37136 119.517H3.62484V122.373ZM3.62484 127.074H5.59987C6.416 127.074 7.06891 126.437 7.06891 125.589C7.06891 124.772 6.25278 124.169 5.404 124.169H3.62484V127.074ZM16.0645 128.69V123.499L12.343 118.048C12.2124 117.835 12.343 117.574 12.6041 117.574H14.269C14.3996 117.574 14.4812 117.656 14.5302 117.721L17.1418 121.475L19.7534 117.721C19.8024 117.656 19.884 117.574 20.0146 117.574H21.6958C21.957 117.574 22.0876 117.835 21.957 118.048L18.1865 123.483V128.69C18.1865 128.853 18.0396 129 17.8763 129H16.3747C16.1951 129 16.0645 128.853 16.0645 128.69ZM31.6595 128.69V117.884C31.6595 117.721 31.7901 117.574 31.9533 117.574H35.8218C38.972 117.574 41.551 120.137 41.551 123.271C41.551 126.437 38.972 129 35.8218 129H31.9533C31.7901 129 31.6595 128.853 31.6595 128.69ZM33.7651 127.009H35.6259C37.7479 127.009 39.2985 125.409 39.2985 123.271C39.2985 121.149 37.7479 119.549 35.6259 119.549H33.7651V127.009ZM46.042 128.69V117.884C46.042 117.721 46.1726 117.574 46.3521 117.574H52.9954C53.1749 117.574 53.3055 117.721 53.3055 117.884V119.223C53.3055 119.386 53.1749 119.533 52.9954 119.533H48.1639V122.21H52.1956C52.3588 122.21 52.5057 122.357 52.5057 122.52V123.875C52.5057 124.054 52.3588 124.185 52.1956 124.185H48.1639V127.041H52.9954C53.1749 127.041 53.3055 127.188 53.3055 127.351V128.69C53.3055 128.853 53.1749 129 52.9954 129H46.3521C46.1726 129 46.042 128.853 46.042 128.69ZM57.9697 128.69V117.884C57.9697 117.721 58.1003 117.574 58.2798 117.574H64.9231C65.1026 117.574 65.2332 117.721 65.2332 117.884V119.223C65.2332 119.386 65.1026 119.533 64.9231 119.533H60.0916V122.602H64.1233C64.2865 122.602 64.4334 122.748 64.4334 122.912V124.25C64.4334 124.413 64.2865 124.56 64.1233 124.56H60.0916V128.69C60.0916 128.853 59.9447 129 59.7815 129H58.2798C58.1003 129 57.9697 128.853 57.9697 128.69ZM69.5148 128.69V117.884C69.5148 117.721 69.6617 117.574 69.8249 117.574H71.3429C71.5062 117.574 71.6531 117.721 71.6531 117.884V128.69C71.6531 128.853 71.5062 129 71.3429 129H69.8249C69.6617 129 69.5148 128.853 69.5148 128.69ZM76.9633 128.69V117.705C76.9633 117.542 77.1102 117.411 77.2735 117.411H77.6815L84.4717 124.626H84.4881V117.884C84.4881 117.721 84.6186 117.574 84.7982 117.574H86.2999C86.4631 117.574 86.61 117.721 86.61 117.884V128.869C86.61 129.033 86.4631 129.163 86.2999 129.163H85.9081L79.0853 121.671H79.069V128.69C79.069 128.853 78.9384 129 78.7588 129H77.2735C77.1102 129 76.9633 128.853 76.9633 128.69ZM91.9196 128.69V117.884C91.9196 117.721 92.0502 117.574 92.2298 117.574H98.8731C99.0526 117.574 99.1832 117.721 99.1832 117.884V119.223C99.1832 119.386 99.0526 119.533 98.8731 119.533H94.0416V122.21H98.0732C98.2365 122.21 98.3834 122.357 98.3834 122.52V123.875C98.3834 124.054 98.2365 124.185 98.0732 124.185H94.0416V127.041H98.8731C99.0526 127.041 99.1832 127.188 99.1832 127.351V128.69C99.1832 128.853 99.0526 129 98.8731 129H92.2298C92.0502 129 91.9196 128.853 91.9196 128.69ZM103.847 128.69V117.884C103.847 117.721 103.978 117.574 104.141 117.574H108.01C111.16 117.574 113.739 120.137 113.739 123.271C113.739 126.437 111.16 129 108.01 129H104.141C103.978 129 103.847 128.853 103.847 128.69ZM105.953 127.009H107.814C109.936 127.009 111.486 125.409 111.486 123.271C111.486 121.149 109.936 119.549 107.814 119.549H105.953V127.009ZM124.164 128.69V117.705C124.164 117.542 124.311 117.411 124.474 117.411H124.882L131.672 124.626H131.689V117.884C131.689 117.721 131.819 117.574 131.999 117.574H133.501C133.664 117.574 133.811 117.721 133.811 117.884V128.869C133.811 129.033 133.664 129.163 133.501 129.163H133.109L126.286 121.671H126.27V128.69C126.27 128.853 126.139 129 125.96 129H124.474C124.311 129 124.164 128.853 124.164 128.69ZM139.12 128.69V117.884C139.12 117.721 139.251 117.574 139.43 117.574H146.074C146.253 117.574 146.384 117.721 146.384 117.884V119.223C146.384 119.386 146.253 119.533 146.074 119.533H141.242V122.21H145.274C145.437 122.21 145.584 122.357 145.584 122.52V123.875C145.584 124.054 145.437 124.185 145.274 124.185H141.242V127.041H146.074C146.253 127.041 146.384 127.188 146.384 127.351V128.69C146.384 128.853 146.253 129 146.074 129H139.43C139.251 129 139.12 128.853 139.12 128.69ZM152.582 128.69V119.533H150.085C149.905 119.533 149.775 119.386 149.775 119.223V117.884C149.775 117.721 149.905 117.574 150.085 117.574H157.218C157.397 117.574 157.528 117.721 157.528 117.884V119.223C157.528 119.386 157.397 119.533 157.218 119.533H154.721V128.69C154.721 128.853 154.574 129 154.41 129H152.892C152.729 129 152.582 128.853 152.582 128.69ZM163.63 128.935L160.545 117.966C160.48 117.737 160.61 117.574 160.839 117.574H162.341C162.471 117.574 162.602 117.688 162.634 117.803L164.332 124.315H164.397L166.992 117.591C167.025 117.493 167.107 117.411 167.27 117.411H167.564C167.727 117.411 167.809 117.493 167.841 117.591L170.453 124.315H170.518L172.183 117.803C172.216 117.688 172.346 117.574 172.477 117.574H173.979C174.207 117.574 174.338 117.737 174.272 117.966L171.187 128.935C171.155 129.065 171.024 129.163 170.894 129.163H170.632C170.485 129.163 170.388 129.082 170.355 128.984L167.433 121.59H167.352L164.462 128.984C164.413 129.082 164.348 129.163 164.185 129.163H163.924C163.793 129.163 163.663 129.065 163.63 128.935ZM177.674 123.303C177.674 120.039 180.269 117.411 183.534 117.411C186.798 117.411 189.41 120.039 189.41 123.303C189.41 126.568 186.798 129.163 183.534 129.163C180.269 129.163 177.674 126.568 177.674 123.303ZM179.796 123.303C179.796 125.36 181.477 127.041 183.534 127.041C185.59 127.041 187.288 125.36 187.288 123.303C187.288 121.247 185.59 119.533 183.534 119.533C181.477 119.533 179.796 121.247 179.796 123.303ZM193.877 128.69V117.884C193.877 117.721 194.007 117.574 194.187 117.574H198.855C200.814 117.574 202.413 119.141 202.413 121.084C202.413 122.585 201.418 123.809 199.998 124.381L202.234 128.527C202.348 128.739 202.234 129 201.956 129H200.242C200.095 129 200.014 128.918 199.981 128.853L197.81 124.528H195.998V128.69C195.998 128.853 195.852 129 195.688 129H194.187C194.007 129 193.877 128.853 193.877 128.69ZM196.015 122.781H198.675C199.54 122.781 200.291 122.03 200.291 121.116C200.291 120.251 199.54 119.533 198.675 119.533H196.015V122.781ZM207.079 128.608V117.966C207.079 117.754 207.243 117.574 207.471 117.574H208.908C209.12 117.574 209.299 117.754 209.299 117.966V122.373L213.413 117.737C213.478 117.656 213.576 117.574 213.723 117.574H215.355C215.665 117.574 215.828 117.917 215.616 118.162L211.356 122.961L215.926 128.429C216.09 128.641 215.959 129 215.632 129H213.853C213.69 129 213.592 128.935 213.56 128.886L209.299 123.63V128.608C209.299 128.82 209.12 129 208.908 129H207.471C207.243 129 207.079 128.82 207.079 128.608ZM220.059 128.69V117.884C220.059 117.721 220.206 117.574 220.369 117.574H221.887C222.051 117.574 222.197 117.721 222.197 117.884V128.69C222.197 128.853 222.051 129 221.887 129H220.369C220.206 129 220.059 128.853 220.059 128.69ZM227.508 128.69V117.705C227.508 117.542 227.655 117.411 227.818 117.411H228.226L235.016 124.626H235.032V117.884C235.032 117.721 235.163 117.574 235.343 117.574H236.844C237.007 117.574 237.154 117.721 237.154 117.884V128.869C237.154 129.033 237.007 129.163 236.844 129.163H236.452L229.63 121.671H229.613V128.69C229.613 128.853 229.483 129 229.303 129H227.818C227.655 129 227.508 128.853 227.508 128.69ZM241.648 123.303C241.648 120.039 244.259 117.411 247.508 117.411C248.977 117.411 250.38 117.982 251.49 118.929C251.621 119.06 251.637 119.255 251.507 119.386L250.495 120.447C250.364 120.578 250.217 120.578 250.07 120.447C249.368 119.827 248.503 119.5 247.606 119.5C245.565 119.5 243.949 121.247 243.949 123.287C243.949 125.311 245.565 127.025 247.622 127.025C248.536 127.025 249.238 126.747 249.564 126.617V125.229H248.259C248.079 125.229 247.948 125.099 247.948 124.936V123.646C247.948 123.467 248.079 123.336 248.259 123.336H251.392C251.556 123.336 251.686 123.483 251.686 123.646V127.825C251.686 127.955 251.621 128.037 251.556 128.086C251.556 128.086 249.874 129.147 247.508 129.147C244.259 129.147 241.648 126.568 241.648 123.303Z" fill="#9E7AEB"/>
</svg>
